<svg xmlns="http://www.w3.org/2000/svg" xmlns:xlink="http://www.w3.org/1999/xlink" width="500" zoomAndPan="magnify" viewBox="0 0 375 374.999991" height="500" preserveAspectRatio="xMidYMid meet" version="1.0"><defs><clipPath id="ebd7165ee2"><path d="M 9.878906 162 L 117 162 L 117 341 L 9.878906 341 Z M 9.878906 162 " clip-rule="nonzero"/></clipPath><clipPath id="0ee0c406cf"><path d="M 258 162 L 365.378906 162 L 365.378906 341 L 258 341 Z M 258 162 " clip-rule="nonzero"/></clipPath></defs><path fill="#4fa469" d="M 356.222656 152.992188 L 355.335938 152.230469 L 346.074219 144.300781 L 339.730469 138.847656 L 339.730469 173.988281 L 359.839844 156.796875 C 358.761719 155.40625 357.558594 154.136719 356.222656 152.992188 Z M 356.222656 152.992188 " fill-opacity="1" fill-rule="nonzero"/><path fill="#4fa469" d="M 35.257812 138.847656 L 28.917969 144.300781 L 19.65625 152.230469 L 18.765625 152.992188 C 17.433594 154.136719 16.226562 155.40625 15.152344 156.796875 L 35.257812 173.988281 Z M 35.257812 138.847656 " fill-opacity="1" fill-rule="nonzero"/><path fill="#4fa469" d="M 268.941406 78.144531 L 231.578125 46.109375 C 230.058594 44.8125 228.484375 43.582031 226.855469 42.421875 C 225.222656 41.261719 223.546875 40.171875 221.820312 39.160156 C 220.09375 38.148438 218.328125 37.214844 216.519531 36.359375 C 214.710938 35.503906 212.867188 34.730469 210.992188 34.039062 C 209.113281 33.34375 207.210938 32.738281 205.277344 32.210938 C 203.347656 31.6875 201.398438 31.25 199.429688 30.898438 C 197.460938 30.546875 195.476562 30.28125 193.484375 30.105469 C 191.492188 29.929688 189.496094 29.839844 187.496094 29.839844 C 185.496094 29.839844 183.496094 29.929688 181.503906 30.105469 C 179.511719 30.28125 177.53125 30.546875 175.5625 30.898438 C 173.589844 31.25 171.640625 31.6875 169.710938 32.210938 C 167.78125 32.738281 165.875 33.34375 164 34.039062 C 162.121094 34.730469 160.28125 35.503906 158.472656 36.359375 C 156.664062 37.214844 154.894531 38.148438 153.167969 39.160156 C 151.445312 40.171875 149.765625 41.261719 148.136719 42.421875 C 146.507812 43.582031 144.929688 44.8125 143.410156 46.109375 L 106.050781 78.144531 L 98.628906 84.488281 L 276.363281 84.488281 Z M 268.941406 78.144531 " fill-opacity="1" fill-rule="nonzero"/><path fill="#4fa469" d="M 206.523438 193.777344 L 206.523438 171.804688 L 187.496094 160.820312 L 168.464844 171.804688 L 168.464844 193.777344 L 187.496094 204.765625 Z M 206.523438 193.777344 " fill-opacity="1" fill-rule="nonzero"/><path fill="#4fa469" d="M 225.328125 211.960938 L 212.867188 204.761719 L 196.269531 214.347656 C 201.5625 214.976562 206.730469 216.167969 211.769531 217.914062 C 216.808594 219.660156 221.601562 221.925781 226.152344 224.710938 Z M 225.328125 211.960938 " fill-opacity="1" fill-rule="nonzero"/><path fill="#4fa469" d="M 115.246094 242.558594 L 120.890625 247.378906 L 136.578125 233.910156 C 135.976562 232.878906 135.699219 231.765625 135.746094 230.574219 L 136.945312 211.972656 L 120.234375 203.714844 C 119.863281 203.527344 119.511719 203.308594 119.179688 203.054688 C 118.851562 202.800781 118.550781 202.519531 118.277344 202.203125 C 118 201.890625 117.761719 201.554688 117.554688 201.191406 C 117.347656 200.832031 117.175781 200.453125 117.042969 200.058594 C 116.910156 199.664062 116.816406 199.261719 116.761719 198.847656 C 116.707031 198.4375 116.695312 198.023438 116.722656 197.605469 C 116.75 197.191406 116.820312 196.78125 116.925781 196.378906 C 117.035156 195.980469 117.183594 195.589844 117.367188 195.21875 C 117.550781 194.84375 117.769531 194.492188 118.023438 194.164062 C 118.277344 193.832031 118.5625 193.53125 118.875 193.257812 C 119.1875 192.984375 119.523438 192.742188 119.886719 192.535156 C 120.246094 192.328125 120.625 192.15625 121.019531 192.023438 C 121.410156 191.886719 121.816406 191.792969 122.226562 191.742188 C 122.640625 191.6875 123.054688 191.671875 123.46875 191.699219 C 123.886719 191.726562 124.292969 191.796875 124.695312 191.902344 C 125.097656 192.011719 125.488281 192.15625 125.859375 192.339844 L 143.316406 200.96875 L 155.777344 193.773438 L 155.777344 171.804688 L 143.320312 164.609375 L 125.859375 173.242188 C 125.488281 173.425781 125.097656 173.574219 124.695312 173.679688 C 124.292969 173.789062 123.882812 173.859375 123.46875 173.886719 C 123.054688 173.914062 122.636719 173.902344 122.226562 173.847656 C 121.8125 173.792969 121.40625 173.699219 121.011719 173.566406 C 120.617188 173.433594 120.238281 173.261719 119.878906 173.054688 C 119.515625 172.847656 119.179688 172.605469 118.867188 172.332031 C 118.550781 172.058594 118.269531 171.753906 118.015625 171.425781 C 117.761719 171.09375 117.539062 170.742188 117.355469 170.367188 C 117.171875 169.996094 117.023438 169.605469 116.917969 169.203125 C 116.808594 168.800781 116.742188 168.394531 116.710938 167.976562 C 116.683594 167.5625 116.699219 167.148438 116.753906 166.734375 C 116.804688 166.320312 116.898438 165.917969 117.035156 165.523438 C 117.167969 165.125 117.339844 164.75 117.546875 164.386719 C 117.753906 164.027344 117.996094 163.691406 118.269531 163.375 C 118.546875 163.0625 118.847656 162.777344 119.179688 162.523438 C 119.507812 162.269531 119.863281 162.050781 120.234375 161.867188 L 136.949219 153.605469 L 135.746094 135.003906 C 135.71875 134.585938 135.734375 134.171875 135.785156 133.757812 C 135.839844 133.34375 135.9375 132.941406 136.070312 132.546875 C 136.203125 132.152344 136.375 131.773438 136.582031 131.414062 C 136.792969 131.050781 137.035156 130.714844 137.308594 130.402344 C 137.582031 130.089844 137.886719 129.804688 138.21875 129.550781 C 138.546875 129.296875 138.902344 129.078125 139.273438 128.894531 C 139.648438 128.710938 140.039062 128.566406 140.441406 128.457031 C 140.84375 128.351562 141.25 128.28125 141.667969 128.257812 C 142.082031 128.230469 142.5 128.242188 142.910156 128.296875 C 143.324219 128.351562 143.730469 128.449219 144.125 128.582031 C 144.519531 128.714844 144.894531 128.886719 145.257812 129.097656 C 145.617188 129.304688 145.953125 129.546875 146.265625 129.824219 C 146.578125 130.097656 146.863281 130.402344 147.117188 130.734375 C 147.367188 131.0625 147.585938 131.417969 147.769531 131.789062 C 147.953125 132.164062 148.101562 132.554688 148.207031 132.957031 C 148.316406 133.359375 148.382812 133.769531 148.40625 134.183594 L 149.664062 153.621094 L 162.121094 160.816406 L 181.152344 149.828125 L 181.152344 135.4375 L 164.945312 124.636719 C 164.597656 124.410156 164.269531 124.148438 163.972656 123.855469 C 163.671875 123.5625 163.40625 123.242188 163.171875 122.894531 C 162.933594 122.546875 162.734375 122.183594 162.574219 121.796875 C 162.410156 121.410156 162.285156 121.011719 162.203125 120.601562 C 162.117188 120.191406 162.074219 119.777344 162.074219 119.355469 C 162.070312 118.9375 162.109375 118.523438 162.191406 118.113281 C 162.273438 117.699219 162.390625 117.300781 162.550781 116.914062 C 162.710938 116.527344 162.90625 116.160156 163.140625 115.808594 C 163.371094 115.460938 163.636719 115.140625 163.933594 114.84375 C 164.230469 114.546875 164.550781 114.28125 164.898438 114.050781 C 165.25 113.816406 165.617188 113.621094 166.003906 113.460938 C 166.390625 113.304688 166.789062 113.183594 167.203125 113.101562 C 167.613281 113.023438 168.027344 112.984375 168.445312 112.984375 C 168.867188 112.988281 169.28125 113.03125 169.691406 113.113281 C 170.101562 113.199219 170.5 113.324219 170.886719 113.484375 C 171.269531 113.648438 171.636719 113.847656 171.984375 114.082031 L 187.496094 124.421875 L 203.003906 114.082031 C 203.351562 113.847656 203.71875 113.648438 204.105469 113.484375 C 204.488281 113.320312 204.886719 113.199219 205.296875 113.113281 C 205.710938 113.027344 206.125 112.984375 206.542969 112.984375 C 206.960938 112.980469 207.375 113.019531 207.789062 113.101562 C 208.199219 113.183594 208.597656 113.300781 208.984375 113.460938 C 209.375 113.621094 209.742188 113.816406 210.089844 114.046875 C 210.4375 114.28125 210.761719 114.546875 211.058594 114.839844 C 211.351562 115.136719 211.617188 115.460938 211.851562 115.808594 C 212.082031 116.15625 212.277344 116.523438 212.4375 116.914062 C 212.597656 117.300781 212.71875 117.699219 212.796875 118.109375 C 212.878906 118.519531 212.917969 118.9375 212.914062 119.355469 C 212.914062 119.773438 212.871094 120.1875 212.785156 120.597656 C 212.703125 121.007812 212.578125 121.40625 212.417969 121.792969 C 212.253906 122.179688 212.054688 122.546875 211.820312 122.894531 C 211.582031 123.238281 211.316406 123.558594 211.015625 123.851562 C 210.71875 124.144531 210.394531 124.40625 210.042969 124.636719 L 193.839844 135.4375 L 193.839844 149.828125 L 212.867188 160.816406 L 225.324219 153.621094 L 226.582031 134.183594 C 226.609375 133.769531 226.675781 133.359375 226.785156 132.957031 C 226.890625 132.554688 227.035156 132.164062 227.21875 131.789062 C 227.402344 131.417969 227.621094 131.0625 227.875 130.734375 C 228.128906 130.402344 228.410156 130.097656 228.726562 129.824219 C 229.039062 129.546875 229.375 129.304688 229.734375 129.097656 C 230.097656 128.886719 230.472656 128.714844 230.867188 128.582031 C 231.261719 128.449219 231.667969 128.351562 232.078125 128.296875 C 232.492188 128.242188 232.90625 128.230469 233.324219 128.257812 C 233.738281 128.28125 234.148438 128.351562 234.550781 128.457031 C 234.953125 128.566406 235.34375 128.710938 235.714844 128.894531 C 236.089844 129.078125 236.441406 129.296875 236.773438 129.550781 C 237.105469 129.804688 237.40625 130.089844 237.683594 130.402344 C 237.957031 130.714844 238.199219 131.050781 238.40625 131.414062 C 238.617188 131.773438 238.789062 132.152344 238.921875 132.546875 C 239.054688 132.941406 239.148438 133.34375 239.203125 133.757812 C 239.257812 134.171875 239.273438 134.585938 239.246094 135.003906 L 238.042969 153.605469 L 254.753906 161.867188 C 255.128906 162.054688 255.480469 162.273438 255.808594 162.527344 C 256.136719 162.78125 256.441406 163.066406 256.714844 163.378906 C 256.988281 163.691406 257.226562 164.027344 257.433594 164.390625 C 257.640625 164.75 257.8125 165.128906 257.945312 165.523438 C 258.078125 165.917969 258.171875 166.320312 258.226562 166.734375 C 258.277344 167.144531 258.292969 167.558594 258.265625 167.972656 C 258.234375 168.390625 258.167969 168.796875 258.058594 169.199219 C 257.953125 169.601562 257.804688 169.988281 257.621094 170.363281 C 257.4375 170.734375 257.21875 171.085938 256.964844 171.417969 C 256.710938 171.746094 256.425781 172.046875 256.113281 172.320312 C 255.800781 172.597656 255.464844 172.835938 255.101562 173.046875 C 254.742188 173.253906 254.367188 173.425781 253.972656 173.558594 C 253.578125 173.691406 253.175781 173.785156 252.761719 173.839844 C 252.347656 173.894531 251.933594 173.90625 251.519531 173.878906 C 251.105469 173.851562 250.695312 173.785156 250.292969 173.675781 C 249.890625 173.570312 249.503906 173.425781 249.132812 173.242188 L 231.671875 164.609375 L 219.210938 171.804688 L 219.210938 193.773438 L 231.671875 200.96875 L 249.128906 192.34375 C 249.503906 192.160156 249.890625 192.011719 250.292969 191.90625 C 250.695312 191.796875 251.105469 191.730469 251.519531 191.703125 C 251.933594 191.675781 252.347656 191.6875 252.761719 191.742188 C 253.175781 191.796875 253.578125 191.890625 253.972656 192.023438 C 254.367188 192.15625 254.742188 192.328125 255.105469 192.535156 C 255.464844 192.742188 255.800781 192.984375 256.117188 193.257812 C 256.429688 193.535156 256.710938 193.835938 256.964844 194.164062 C 257.21875 194.496094 257.4375 194.847656 257.625 195.21875 C 257.808594 195.59375 257.953125 195.980469 258.0625 196.382812 C 258.171875 196.785156 258.238281 197.195312 258.265625 197.609375 C 258.292969 198.023438 258.28125 198.4375 258.226562 198.851562 C 258.175781 199.265625 258.082031 199.667969 257.949219 200.0625 C 257.8125 200.457031 257.644531 200.832031 257.4375 201.195312 C 257.230469 201.554688 256.988281 201.894531 256.714844 202.207031 C 256.441406 202.519531 256.136719 202.804688 255.808594 203.058594 C 255.480469 203.3125 255.128906 203.53125 254.753906 203.714844 L 238.042969 211.976562 L 239.242188 230.574219 C 239.289062 231.769531 239.011719 232.878906 238.410156 233.910156 L 254.097656 247.378906 L 259.742188 242.558594 L 324 187.5 L 333.386719 179.445312 L 333.386719 116.203125 C 333.386719 115.371094 333.347656 114.542969 333.265625 113.714844 C 333.183594 112.886719 333.0625 112.066406 332.902344 111.25 C 332.738281 110.4375 332.539062 109.632812 332.296875 108.835938 C 332.054688 108.039062 331.777344 107.257812 331.457031 106.492188 C 331.140625 105.722656 330.785156 104.972656 330.394531 104.242188 C 330 103.507812 329.574219 102.796875 329.113281 102.105469 C 328.652344 101.414062 328.15625 100.746094 327.628906 100.105469 C 327.101562 99.460938 326.546875 98.847656 325.957031 98.257812 C 325.371094 97.671875 324.753906 97.113281 324.113281 96.585938 C 323.46875 96.058594 322.804688 95.566406 322.113281 95.105469 C 321.421875 94.640625 320.710938 94.214844 319.976562 93.824219 C 319.242188 93.433594 318.492188 93.078125 317.726562 92.757812 C 316.957031 92.441406 316.175781 92.160156 315.378906 91.921875 C 314.585938 91.679688 313.78125 91.476562 312.964844 91.316406 C 312.148438 91.152344 311.328125 91.03125 310.5 90.953125 C 309.675781 90.871094 308.84375 90.828125 308.015625 90.828125 L 66.976562 90.828125 C 66.144531 90.828125 65.316406 90.871094 64.488281 90.953125 C 63.660156 91.03125 62.839844 91.152344 62.023438 91.316406 C 61.210938 91.476562 60.40625 91.679688 59.609375 91.921875 C 58.8125 92.160156 58.03125 92.441406 57.265625 92.757812 C 56.496094 93.078125 55.746094 93.433594 55.011719 93.824219 C 54.28125 94.214844 53.566406 94.640625 52.878906 95.105469 C 52.1875 95.566406 51.519531 96.058594 50.878906 96.585938 C 50.234375 97.113281 49.621094 97.671875 49.03125 98.257812 C 48.445312 98.847656 47.886719 99.460938 47.359375 100.105469 C 46.832031 100.746094 46.339844 101.414062 45.875 102.105469 C 45.414062 102.796875 44.988281 103.507812 44.597656 104.242188 C 44.203125 104.972656 43.851562 105.722656 43.53125 106.492188 C 43.214844 107.257812 42.933594 108.039062 42.695312 108.835938 C 42.453125 109.632812 42.25 110.4375 42.089844 111.25 C 41.925781 112.066406 41.804688 112.886719 41.722656 113.714844 C 41.644531 114.542969 41.601562 115.371094 41.601562 116.203125 L 41.601562 179.445312 L 50.992188 187.5 Z M 115.246094 242.558594 " fill-opacity="1" fill-rule="nonzero"/><path fill="#4fa469" d="M 149.664062 211.960938 L 148.839844 224.707031 C 153.390625 221.925781 158.183594 219.660156 163.222656 217.914062 C 168.261719 216.167969 173.425781 214.976562 178.722656 214.347656 L 162.121094 204.761719 Z M 149.664062 211.960938 " fill-opacity="1" fill-rule="nonzero"/><g clip-path="url(#ebd7165ee2)"><path fill="#4fa469" d="M 111.125 247.378906 L 46.867188 192.320312 L 11.980469 162.378906 C 10.574219 165.527344 9.875 168.828125 9.886719 172.277344 L 9.886719 331.867188 C 9.886719 332.566406 9.949219 333.328125 10.015625 334.027344 C 10.265625 336.375 10.941406 338.59375 12.042969 340.6875 L 116.007812 251.566406 Z M 111.125 247.378906 " fill-opacity="1" fill-rule="nonzero"/></g><g clip-path="url(#0ee0c406cf)"><path fill="#4fa469" d="M 363.007812 162.378906 L 328.121094 192.320312 L 263.867188 247.378906 L 258.980469 251.566406 L 362.945312 340.6875 C 364.046875 338.59375 364.726562 336.375 364.976562 334.027344 C 365.039062 333.328125 365.101562 332.566406 365.101562 331.867188 L 365.101562 172.277344 C 365.113281 168.828125 364.414062 165.527344 363.007812 162.378906 Z M 363.007812 162.378906 " fill-opacity="1" fill-rule="nonzero"/></g><path fill="#4fa469" d="M 231.578125 236.390625 C 230.058594 235.089844 228.484375 233.859375 226.855469 232.699219 C 225.222656 231.539062 223.546875 230.453125 221.820312 229.441406 C 220.09375 228.429688 218.328125 227.496094 216.519531 226.640625 C 214.710938 225.78125 212.867188 225.007812 210.992188 224.316406 C 209.113281 223.625 207.210938 223.015625 205.277344 222.492188 C 203.347656 221.964844 201.398438 221.527344 199.429688 221.175781 C 197.460938 220.824219 195.476562 220.558594 193.484375 220.382812 C 191.492188 220.207031 189.496094 220.117188 187.496094 220.117188 C 185.496094 220.117188 183.496094 220.207031 181.503906 220.382812 C 179.511719 220.558594 177.53125 220.824219 175.5625 221.175781 C 173.589844 221.527344 171.640625 221.964844 169.710938 222.492188 C 167.78125 223.015625 165.875 223.625 164 224.316406 C 162.121094 225.007812 160.28125 225.78125 158.472656 226.640625 C 156.664062 227.496094 154.894531 228.429688 153.167969 229.441406 C 151.445312 230.453125 149.765625 231.539062 148.136719 232.699219 C 146.507812 233.859375 144.929688 235.089844 143.410156 236.390625 L 120.828125 255.734375 L 15.914062 345.679688 C 17.660156 347.359375 19.65625 348.648438 21.90625 349.550781 C 24.15625 350.449219 26.492188 350.894531 28.917969 350.882812 L 346.074219 350.882812 C 348.496094 350.894531 350.832031 350.449219 353.082031 349.550781 C 355.332031 348.648438 357.332031 347.359375 359.078125 345.679688 L 254.160156 255.734375 Z M 231.578125 236.390625 " fill-opacity="1" fill-rule="nonzero"/></svg>