<svg xmlns="http://www.w3.org/2000/svg" xmlns:xlink="http://www.w3.org/1999/xlink" width="1200" zoomAndPan="magnify" viewBox="0 0 900 225" height="300" preserveAspectRatio="xMidYMid meet" version="1.0"><defs><g/><clipPath id="32b1528f13"><path d="M 22.5 89 L 69 89 L 69 168 L 22.5 168 Z M 22.5 89 " clip-rule="nonzero"/></clipPath><clipPath id="306278f54f"><path d="M 25 114 L 175 114 L 175 171.597656 L 25 171.597656 Z M 25 114 " clip-rule="nonzero"/></clipPath></defs><g fill="#2563eb" fill-opacity="1"><g transform="translate(183.152059, 158.615686)"><g><path d="M 93.28125 0 L 93.28125 -34.796875 C 93.28125 -39.097656 93.441406 -43.515625 93.765625 -48.046875 C 94.097656 -52.578125 94.453125 -56.382812 94.828125 -59.46875 C 95.203125 -62.5625 95.4375 -64.53125 95.53125 -65.375 L 94.96875 -65.375 L 77.15625 0 L 52.890625 0 L 34.9375 -65.234375 L 34.375 -65.234375 C 34.46875 -64.390625 34.722656 -62.445312 35.140625 -59.40625 C 35.554688 -56.363281 35.953125 -52.578125 36.328125 -48.046875 C 36.703125 -43.515625 36.890625 -39.097656 36.890625 -34.796875 L 36.890625 0 L 8.421875 0 L 8.421875 -96.515625 L 52.1875 -96.515625 L 66.78125 -40.828125 L 67.328125 -40.828125 L 81.78125 -96.515625 L 124.015625 -96.515625 L 124.015625 0 Z M 93.28125 0 "/></g></g></g><g fill="#2563eb" fill-opacity="1"><g transform="translate(315.570201, 158.615686)"><g><path d="M 45.03125 -75.75 C 56.34375 -75.75 65.550781 -73.851562 72.65625 -70.0625 C 79.769531 -66.28125 83.328125 -60.132812 83.328125 -51.625 L 83.328125 -22.71875 C 83.328125 -21.132812 83.703125 -19.828125 84.453125 -18.796875 C 85.203125 -17.765625 86.320312 -17.25 87.8125 -17.25 L 92.859375 -17.25 L 92.859375 -1.125 C 92.578125 -0.9375 91.851562 -0.628906 90.6875 -0.203125 C 89.519531 0.210938 87.859375 0.628906 85.703125 1.046875 C 83.554688 1.472656 81.082031 1.6875 78.28125 1.6875 C 72.851562 1.6875 68.382812 0.867188 64.875 -0.765625 C 61.375 -2.398438 58.96875 -4.671875 57.65625 -7.578125 C 54.101562 -4.765625 50.128906 -2.515625 45.734375 -0.828125 C 41.335938 0.847656 36.191406 1.6875 30.296875 1.6875 C 12.898438 1.6875 4.203125 -5.234375 4.203125 -19.078125 C 4.203125 -26.273438 6.144531 -31.769531 10.03125 -35.5625 C 13.914062 -39.351562 19.503906 -41.945312 26.796875 -43.34375 C 34.085938 -44.75 43.625 -45.453125 55.40625 -45.453125 L 55.40625 -49.09375 C 55.40625 -52 54.398438 -54.195312 52.390625 -55.6875 C 50.378906 -57.1875 47.785156 -57.9375 44.609375 -57.9375 C 41.710938 -57.9375 39.210938 -57.421875 37.109375 -56.390625 C 35.003906 -55.359375 33.953125 -53.722656 33.953125 -51.484375 L 33.953125 -50.921875 L 6.453125 -50.921875 C 6.359375 -51.390625 6.3125 -52.046875 6.3125 -52.890625 C 6.3125 -59.898438 9.65625 -65.460938 16.34375 -69.578125 C 23.03125 -73.691406 32.59375 -75.75 45.03125 -75.75 Z M 55.40625 -32.265625 C 47.457031 -32.265625 41.585938 -31.398438 37.796875 -29.671875 C 34.015625 -27.941406 32.125 -25.625 32.125 -22.71875 C 32.125 -18.050781 35.300781 -15.71875 41.65625 -15.71875 C 45.3125 -15.71875 48.515625 -16.695312 51.265625 -18.65625 C 54.023438 -20.625 55.40625 -23.054688 55.40625 -25.953125 Z M 55.40625 -32.265625 "/></g></g></g><g fill="#2563eb" fill-opacity="1"><g transform="translate(409.132582, 158.615686)"><g><path d="M 9.40625 -82.765625 L 9.40625 -101.703125 L 37.3125 -101.703125 L 37.3125 -82.765625 Z M 9.40625 0 L 9.40625 -74.0625 L 37.3125 -74.0625 L 37.3125 0 Z M 9.40625 0 "/></g></g></g><g fill="#2563eb" fill-opacity="1"><g transform="translate(455.843655, 158.615686)"><g><path d="M 9.40625 0 L 9.40625 -101.703125 L 37.3125 -101.703125 L 37.3125 0 Z M 9.40625 0 "/></g></g></g><g fill="#4fa469" fill-opacity="1"><g transform="translate(502.558295, 158.615686)"><g><path d="M 10.375 -96.515625 L 41.390625 -96.515625 L 41.390625 -24.6875 L 90.90625 -24.6875 L 90.90625 0 L 10.375 0 Z M 10.375 -96.515625 "/></g></g></g><g fill="#4fa469" fill-opacity="1"><g transform="translate(596.120689, 158.615686)"><g><path d="M 46.71875 -75.75 C 60.269531 -75.75 70.625 -72.566406 77.78125 -66.203125 C 84.9375 -59.847656 88.515625 -50.125 88.515625 -37.03125 L 88.515625 -32.265625 L 32.96875 -32.265625 C 32.96875 -26.929688 34.160156 -22.90625 36.546875 -20.1875 C 38.929688 -17.476562 42.691406 -16.125 47.828125 -16.125 C 52.503906 -16.125 55.941406 -17.109375 58.140625 -19.078125 C 60.335938 -21.046875 61.4375 -23.664062 61.4375 -26.9375 L 88.515625 -26.9375 C 88.515625 -17.957031 85.097656 -10.941406 78.265625 -5.890625 C 71.441406 -0.835938 61.484375 1.6875 48.390625 1.6875 C 34.648438 1.6875 23.988281 -1.515625 16.40625 -7.921875 C 8.832031 -14.328125 5.046875 -24.03125 5.046875 -37.03125 C 5.046875 -49.75 8.738281 -59.378906 16.125 -65.921875 C 23.519531 -72.472656 33.71875 -75.75 46.71875 -75.75 Z M 47.828125 -57.9375 C 39.046875 -57.9375 34.140625 -53.773438 33.109375 -45.453125 L 60.328125 -45.453125 C 60.328125 -49.285156 59.226562 -52.320312 57.03125 -54.5625 C 54.832031 -56.8125 51.765625 -57.9375 47.828125 -57.9375 Z M 47.828125 -57.9375 "/></g></g></g><g fill="#4fa469" fill-opacity="1"><g transform="translate(689.683082, 158.615686)"><g><path d="M 45.03125 -75.75 C 56.34375 -75.75 65.550781 -73.851562 72.65625 -70.0625 C 79.769531 -66.28125 83.328125 -60.132812 83.328125 -51.625 L 83.328125 -22.71875 C 83.328125 -21.132812 83.703125 -19.828125 84.453125 -18.796875 C 85.203125 -17.765625 86.320312 -17.25 87.8125 -17.25 L 92.859375 -17.25 L 92.859375 -1.125 C 92.578125 -0.9375 91.851562 -0.628906 90.6875 -0.203125 C 89.519531 0.210938 87.859375 0.628906 85.703125 1.046875 C 83.554688 1.472656 81.082031 1.6875 78.28125 1.6875 C 72.851562 1.6875 68.382812 0.867188 64.875 -0.765625 C 61.375 -2.398438 58.96875 -4.671875 57.65625 -7.578125 C 54.101562 -4.765625 50.128906 -2.515625 45.734375 -0.828125 C 41.335938 0.847656 36.191406 1.6875 30.296875 1.6875 C 12.898438 1.6875 4.203125 -5.234375 4.203125 -19.078125 C 4.203125 -26.273438 6.144531 -31.769531 10.03125 -35.5625 C 13.914062 -39.351562 19.503906 -41.945312 26.796875 -43.34375 C 34.085938 -44.75 43.625 -45.453125 55.40625 -45.453125 L 55.40625 -49.09375 C 55.40625 -52 54.398438 -54.195312 52.390625 -55.6875 C 50.378906 -57.1875 47.785156 -57.9375 44.609375 -57.9375 C 41.710938 -57.9375 39.210938 -57.421875 37.109375 -56.390625 C 35.003906 -55.359375 33.953125 -53.722656 33.953125 -51.484375 L 33.953125 -50.921875 L 6.453125 -50.921875 C 6.359375 -51.390625 6.3125 -52.046875 6.3125 -52.890625 C 6.3125 -59.898438 9.65625 -65.460938 16.34375 -69.578125 C 23.03125 -73.691406 32.59375 -75.75 45.03125 -75.75 Z M 55.40625 -32.265625 C 47.457031 -32.265625 41.585938 -31.398438 37.796875 -29.671875 C 34.015625 -27.941406 32.125 -25.625 32.125 -22.71875 C 32.125 -18.050781 35.300781 -15.71875 41.65625 -15.71875 C 45.3125 -15.71875 48.515625 -16.695312 51.265625 -18.65625 C 54.023438 -20.625 55.40625 -23.054688 55.40625 -25.953125 Z M 55.40625 -32.265625 "/></g></g></g><g fill="#4fa469" fill-opacity="1"><g transform="translate(783.245464, 158.615686)"><g><path d="M 62.28125 0 L 59.90625 -10.515625 C 54.476562 -2.378906 46.617188 1.6875 36.328125 1.6875 C 26.328125 1.6875 18.613281 -1.582031 13.1875 -8.125 C 7.757812 -14.675781 5.046875 -24.359375 5.046875 -37.171875 C 5.046875 -49.890625 7.757812 -59.5 13.1875 -66 C 18.613281 -72.5 26.328125 -75.75 36.328125 -75.75 C 44.835938 -75.75 51.757812 -72.894531 57.09375 -67.1875 L 57.09375 -101.703125 L 85.015625 -101.703125 L 85.015625 0 Z M 45.03125 -55.125 C 36.988281 -55.125 32.96875 -50.3125 32.96875 -40.6875 L 32.96875 -33.25 C 32.96875 -23.707031 36.988281 -18.9375 45.03125 -18.9375 C 49.144531 -18.9375 52.226562 -20.382812 54.28125 -23.28125 C 56.34375 -26.1875 57.375 -29.976562 57.375 -34.65625 L 57.375 -39.28125 C 57.375 -43.957031 56.34375 -47.765625 54.28125 -50.703125 C 52.226562 -53.648438 49.144531 -55.125 45.03125 -55.125 Z M 45.03125 -55.125 "/></g></g></g><path fill="#4fa469" d="M 172.792969 85.785156 L 172.410156 85.453125 L 168.390625 82.011719 L 165.636719 79.644531 L 165.636719 94.894531 L 174.363281 87.433594 C 173.898438 86.832031 173.375 86.28125 172.792969 85.785156 Z M 172.792969 85.785156 " fill-opacity="1" fill-rule="nonzero"/><path fill="#4fa469" d="M 33.511719 79.644531 L 30.757812 82.011719 L 26.738281 85.453125 L 26.355469 85.785156 C 25.773438 86.28125 25.25 86.832031 24.785156 87.433594 L 33.511719 94.894531 Z M 33.511719 79.644531 " fill-opacity="1" fill-rule="nonzero"/><path fill="#4fa469" d="M 134.917969 53.300781 L 118.707031 39.402344 C 118.046875 38.835938 117.363281 38.304688 116.652344 37.800781 C 115.945312 37.296875 115.21875 36.824219 114.46875 36.386719 C 113.722656 35.945312 112.953125 35.542969 112.167969 35.171875 C 111.382812 34.800781 110.585938 34.464844 109.769531 34.164062 C 108.957031 33.863281 108.128906 33.597656 107.292969 33.371094 C 106.453125 33.144531 105.609375 32.953125 104.753906 32.800781 C 103.898438 32.648438 103.039062 32.53125 102.171875 32.457031 C 101.308594 32.378906 100.441406 32.339844 99.574219 32.339844 C 98.707031 32.339844 97.839844 32.378906 96.976562 32.457031 C 96.109375 32.53125 95.25 32.648438 94.394531 32.800781 C 93.539062 32.953125 92.695312 33.144531 91.855469 33.371094 C 91.019531 33.597656 90.191406 33.863281 89.378906 34.164062 C 88.5625 34.464844 87.765625 34.800781 86.980469 35.171875 C 86.195312 35.542969 85.425781 35.945312 84.679688 36.386719 C 83.929688 36.824219 83.203125 37.296875 82.496094 37.800781 C 81.785156 38.304688 81.101562 38.835938 80.441406 39.402344 L 64.230469 53.300781 L 61.007812 56.054688 L 138.140625 56.054688 Z M 134.917969 53.300781 " fill-opacity="1" fill-rule="nonzero"/><path fill="#4fa469" d="M 107.832031 103.484375 L 107.832031 93.949219 L 99.574219 89.179688 L 91.316406 93.949219 L 91.316406 103.484375 L 99.574219 108.25 Z M 107.832031 103.484375 " fill-opacity="1" fill-rule="nonzero"/><path fill="#4fa469" d="M 115.992188 111.375 L 110.585938 108.25 L 103.382812 112.410156 C 108.03125 112.964844 112.355469 114.460938 116.351562 116.90625 Z M 115.992188 111.375 " fill-opacity="1" fill-rule="nonzero"/><path fill="#4fa469" d="M 68.222656 124.652344 L 70.671875 126.742188 L 77.480469 120.898438 C 77.21875 120.449219 77.097656 119.96875 77.117188 119.449219 L 77.636719 111.378906 L 70.386719 107.796875 C 70.058594 107.632812 69.777344 107.414062 69.535156 107.140625 C 69.296875 106.863281 69.117188 106.554688 69 106.210938 C 68.882812 105.863281 68.839844 105.507812 68.863281 105.144531 C 68.886719 104.78125 68.980469 104.433594 69.140625 104.109375 C 69.304688 103.78125 69.519531 103.496094 69.796875 103.257812 C 70.070312 103.015625 70.378906 102.839844 70.726562 102.722656 C 71.070312 102.605469 71.425781 102.558594 71.789062 102.582031 C 72.15625 102.605469 72.5 102.699219 72.828125 102.859375 L 80.402344 106.601562 L 85.8125 103.480469 L 85.8125 93.945312 L 80.40625 90.824219 L 72.828125 94.570312 C 72.5 94.734375 72.152344 94.828125 71.789062 94.851562 C 71.425781 94.875 71.070312 94.828125 70.722656 94.710938 C 70.378906 94.59375 70.066406 94.417969 69.792969 94.175781 C 69.515625 93.9375 69.300781 93.652344 69.136719 93.324219 C 68.976562 92.996094 68.882812 92.652344 68.859375 92.285156 C 68.832031 91.921875 68.878906 91.566406 68.996094 91.222656 C 69.113281 90.875 69.292969 90.566406 69.535156 90.289062 C 69.773438 90.015625 70.058594 89.796875 70.386719 89.636719 L 77.640625 86.050781 L 77.117188 77.976562 C 77.09375 77.613281 77.140625 77.257812 77.257812 76.910156 C 77.375 76.566406 77.554688 76.253906 77.796875 75.980469 C 78.035156 75.707031 78.320312 75.488281 78.648438 75.328125 C 78.976562 75.164062 79.324219 75.074219 79.6875 75.050781 C 80.050781 75.027344 80.40625 75.074219 80.753906 75.191406 C 81.097656 75.308594 81.410156 75.488281 81.683594 75.730469 C 81.957031 75.972656 82.175781 76.253906 82.335938 76.582031 C 82.496094 76.910156 82.589844 77.257812 82.613281 77.621094 L 83.15625 86.058594 L 88.5625 89.179688 L 96.820312 84.410156 L 96.820312 78.167969 L 89.789062 73.480469 C 89.480469 73.277344 89.226562 73.027344 89.019531 72.722656 C 88.8125 72.417969 88.671875 72.085938 88.597656 71.726562 C 88.523438 71.367188 88.523438 71.007812 88.59375 70.648438 C 88.664062 70.285156 88.800781 69.953125 89.003906 69.648438 C 89.207031 69.34375 89.464844 69.089844 89.769531 68.882812 C 90.074219 68.679688 90.40625 68.542969 90.769531 68.472656 C 91.128906 68.402344 91.488281 68.40625 91.847656 68.480469 C 92.207031 68.550781 92.539062 68.691406 92.84375 68.898438 L 99.574219 73.386719 L 106.304688 68.898438 C 106.609375 68.691406 106.941406 68.550781 107.300781 68.476562 C 107.660156 68.40625 108.019531 68.402344 108.378906 68.472656 C 108.742188 68.542969 109.074219 68.679688 109.378906 68.882812 C 109.683594 69.085938 109.941406 69.34375 110.144531 69.648438 C 110.347656 69.953125 110.484375 70.285156 110.554688 70.648438 C 110.625 71.007812 110.625 71.367188 110.550781 71.726562 C 110.476562 72.085938 110.335938 72.417969 110.128906 72.722656 C 109.921875 73.027344 109.667969 73.277344 109.359375 73.480469 L 102.328125 78.167969 L 102.328125 84.410156 L 110.585938 89.179688 L 115.992188 86.054688 L 116.535156 77.621094 C 116.558594 77.257812 116.652344 76.910156 116.8125 76.582031 C 116.972656 76.253906 117.191406 75.972656 117.464844 75.730469 C 117.742188 75.488281 118.050781 75.308594 118.394531 75.191406 C 118.742188 75.074219 119.097656 75.027344 119.460938 75.050781 C 119.828125 75.074219 120.171875 75.164062 120.5 75.328125 C 120.828125 75.488281 121.113281 75.707031 121.351562 75.980469 C 121.59375 76.253906 121.773438 76.566406 121.890625 76.910156 C 122.007812 77.257812 122.054688 77.613281 122.03125 77.976562 L 121.511719 86.050781 L 128.761719 89.636719 C 129.089844 89.796875 129.371094 90.015625 129.613281 90.289062 C 129.851562 90.566406 130.03125 90.875 130.148438 91.222656 C 130.261719 91.566406 130.308594 91.921875 130.285156 92.285156 C 130.261719 92.648438 130.167969 92.996094 130.003906 93.320312 C 129.84375 93.648438 129.625 93.933594 129.351562 94.171875 C 129.078125 94.414062 128.765625 94.589844 128.421875 94.707031 C 128.078125 94.824219 127.722656 94.871094 127.359375 94.847656 C 126.996094 94.824219 126.648438 94.730469 126.320312 94.570312 L 118.746094 90.824219 L 113.335938 93.945312 L 113.335938 103.480469 L 118.746094 106.605469 L 126.320312 102.859375 C 126.648438 102.699219 126.992188 102.605469 127.359375 102.582031 C 127.722656 102.558594 128.078125 102.605469 128.421875 102.722656 C 128.769531 102.839844 129.078125 103.019531 129.351562 103.257812 C 129.628906 103.5 129.84375 103.78125 130.007812 104.109375 C 130.167969 104.4375 130.261719 104.78125 130.285156 105.144531 C 130.308594 105.507812 130.265625 105.863281 130.148438 106.210938 C 130.03125 106.554688 129.851562 106.867188 129.613281 107.140625 C 129.371094 107.414062 129.089844 107.632812 128.761719 107.796875 L 121.507812 111.378906 L 122.03125 119.453125 C 122.050781 119.96875 121.929688 120.453125 121.667969 120.898438 L 128.476562 126.742188 L 130.925781 124.652344 L 158.8125 100.757812 L 162.886719 97.261719 L 162.886719 69.820312 C 162.886719 69.09375 162.816406 68.378906 162.675781 67.671875 C 162.535156 66.960938 162.324219 66.273438 162.046875 65.605469 C 161.769531 64.9375 161.433594 64.300781 161.03125 63.699219 C 160.628906 63.097656 160.171875 62.542969 159.660156 62.03125 C 159.148438 61.519531 158.59375 61.0625 157.992188 60.664062 C 157.390625 60.261719 156.757812 59.921875 156.089844 59.644531 C 155.421875 59.367188 154.730469 59.160156 154.023438 59.019531 C 153.3125 58.878906 152.597656 58.808594 151.875 58.808594 L 47.273438 58.808594 C 46.550781 58.808594 45.835938 58.878906 45.125 59.019531 C 44.417969 59.160156 43.726562 59.367188 43.058594 59.644531 C 42.390625 59.921875 41.757812 60.261719 41.15625 60.664062 C 40.554688 61.0625 40 61.519531 39.488281 62.03125 C 38.976562 62.542969 38.519531 63.097656 38.117188 63.699219 C 37.714844 64.300781 37.378906 64.9375 37.101562 65.605469 C 36.824219 66.273438 36.613281 66.960938 36.472656 67.671875 C 36.332031 68.378906 36.261719 69.09375 36.261719 69.820312 L 36.261719 97.261719 L 40.335938 100.757812 Z M 68.222656 124.652344 " fill-opacity="1" fill-rule="nonzero"/><path fill="#4fa469" d="M 83.15625 111.371094 L 82.800781 116.90625 C 86.796875 114.460938 91.117188 112.964844 95.765625 112.410156 L 88.5625 108.25 Z M 83.15625 111.371094 " fill-opacity="1" fill-rule="nonzero"/><g clip-path="url(#32b1528f13)"><path fill="#4fa469" d="M 66.433594 126.742188 L 38.546875 102.851562 L 23.410156 89.859375 C 22.796875 91.222656 22.496094 92.65625 22.5 94.152344 L 22.5 163.410156 C 22.5 163.710938 22.527344 164.042969 22.554688 164.34375 C 22.664062 165.363281 22.957031 166.328125 23.4375 167.234375 L 68.550781 128.558594 Z M 66.433594 126.742188 " fill-opacity="1" fill-rule="nonzero"/></g><path fill="#4fa469" d="M 175.738281 89.859375 L 160.601562 102.851562 L 132.714844 126.742188 L 130.597656 128.558594 L 175.710938 167.234375 C 176.191406 166.328125 176.484375 165.363281 176.59375 164.34375 C 176.621094 164.042969 176.648438 163.710938 176.648438 163.410156 L 176.648438 94.152344 C 176.652344 92.65625 176.351562 91.222656 175.738281 89.859375 Z M 175.738281 89.859375 " fill-opacity="1" fill-rule="nonzero"/><g clip-path="url(#306278f54f)"><path fill="#4fa469" d="M 118.707031 121.972656 C 118.046875 121.410156 117.363281 120.875 116.652344 120.375 C 115.945312 119.871094 115.21875 119.398438 114.46875 118.957031 C 113.722656 118.519531 112.953125 118.113281 112.167969 117.742188 C 111.382812 117.371094 110.585938 117.035156 109.769531 116.734375 C 108.957031 116.433594 108.128906 116.171875 107.292969 115.941406 C 106.453125 115.714844 105.609375 115.527344 104.753906 115.371094 C 103.898438 115.21875 103.039062 115.105469 102.171875 115.027344 C 101.308594 114.953125 100.441406 114.914062 99.574219 114.914062 C 98.707031 114.914062 97.839844 114.953125 96.976562 115.027344 C 96.109375 115.105469 95.25 115.21875 94.394531 115.371094 C 93.539062 115.527344 92.695312 115.714844 91.855469 115.941406 C 91.019531 116.171875 90.191406 116.433594 89.378906 116.734375 C 88.5625 117.035156 87.765625 117.371094 86.980469 117.742188 C 86.195312 118.113281 85.425781 118.519531 84.679688 118.957031 C 83.929688 119.398438 83.203125 119.871094 82.496094 120.375 C 81.785156 120.875 81.101562 121.410156 80.441406 121.972656 L 70.644531 130.371094 L 25.113281 169.402344 C 25.871094 170.132812 26.738281 170.691406 27.714844 171.082031 C 28.691406 171.472656 29.707031 171.664062 30.757812 171.660156 L 168.390625 171.660156 C 169.441406 171.664062 170.457031 171.472656 171.433594 171.082031 C 172.410156 170.691406 173.273438 170.132812 174.035156 169.402344 L 128.503906 130.371094 Z M 118.707031 121.972656 " fill-opacity="1" fill-rule="nonzero"/></g></svg>